<svg width="1440" height="49" viewBox="0 0 1440 49" fill="none" xmlns="http://www.w3.org/2000/svg">
<path opacity="0.25" d="M1440 7.64636V28.6856C1382.65 38.7757 1315.69 43.3072 1250.4 41.4118C1165.97 38.9711 1086.8 26.2721 1002.24 24.3678C913.632 22.3861 825.192 32.0399 740.4 40.3937C657.276 48.5749 574.44 51.7019 489.12 46.3387C445.74 43.6117 405.3 38.2303 363.78 33.0034C252.612 19.0091 104.4 1.15143 0 31.4945V7.64636L1440 7.64636Z" fill="#FF9452"/>
<path opacity="0.5" d="M1440 -0.991089V6.1947C1424.4 15.7894 1406.83 24.8523 1382.77 31.7563C1320.71 49.5821 1242 49.4594 1170.5 40.6329C1133.12 36.0196 1098.4 28.7838 1062.9 22.5434C1013.8 13.9077 961.224 1.63597 905.904 -0.0320746C862.392 -1.32743 820.824 4.2494 787.584 14.3122C749.46 25.8522 712.8 42.4918 663.228 47.4914C614.7 52.3956 565.608 44.4507 520.272 36.4559C474.936 28.4611 430.08 18.7301 379.968 16.8893C308.292 14.2304 244.032 27.2885 177.288 34.5424C141.048 38.4785 106.488 37.3468 72.78 31.1336C45.864 26.184 15.1799 18.8937 0 8.75359V-0.991089L1440 -0.991089Z" fill="#FF9452"/>
<path opacity="0.5" d="M1440 -0.991089V6.1947C1424.4 15.7894 1406.83 24.8523 1382.77 31.7563C1320.71 49.5821 1242 49.4594 1170.5 40.6329C1133.12 36.0196 1098.4 28.7838 1062.9 22.5434C1013.8 13.9077 961.224 1.63597 905.904 -0.0320746C862.392 -1.32743 820.824 4.2494 787.584 14.3122C749.46 25.8522 712.8 42.4918 663.228 47.4914C614.7 52.3956 565.608 44.4507 520.272 36.4559C474.936 28.4611 430.08 18.7301 379.968 16.8893C308.292 14.2304 244.032 27.2885 177.288 34.5424C141.048 38.4785 106.488 37.3468 72.78 31.1336C45.864 26.184 15.1799 18.8937 0 8.75359V-0.991089L1440 -0.991089Z" fill="#FF9452"/>
<path d="M1440 -2.00003V0.558853C1260.08 24.816 1063.09 30.4156 869.004 17.3484C817.404 13.876 767.928 8.2037 715.872 5.32211C645.072 1.3997 580.896 10.8853 517.2 21.4117C446.484 33.0972 376.8 41.2874 298.56 38.9058C194.724 35.7242 91.608 18.1302 0 0.358869V-2.00003L1440 -2.00003Z" fill="#FF9452"/>
</svg>
