<svg width="123" height="970" viewBox="0 0 123 970" fill="none" xmlns="http://www.w3.org/2000/svg">
<path opacity="0.25" d="M20.6816 1389.33H72.3346C97.1066 1333.53 108.232 1268.39 103.579 1204.86C97.5864 1122.72 66.4094 1045.7 61.734 963.423C56.8688 877.215 80.5696 791.17 101.079 708.674C121.164 627.801 128.842 547.208 115.674 464.199C108.979 421.994 95.7676 382.649 82.9352 342.253C48.578 234.096 4.73606 89.8977 79.2306 -11.675H20.6816L20.6816 1389.33Z" fill="#FF9452"/>
<path opacity="0.5" d="M-0.523438 1389.33H17.1182C40.674 1374.15 62.9241 1357.06 79.874 1333.65C123.638 1273.27 123.337 1196.69 101.667 1127.13C90.3407 1090.76 72.5763 1056.98 57.2556 1022.44C36.0543 974.666 5.92621 923.518 1.83102 869.696C-1.34917 827.362 12.3424 786.92 37.0474 754.58C65.379 717.489 106.23 681.821 118.505 633.592C130.545 586.378 111.04 538.616 91.4119 494.507C71.784 450.399 47.8935 406.758 43.3743 358.003C36.8466 288.268 68.9051 225.748 86.7141 160.812C96.3775 125.553 93.599 91.9292 78.3452 59.134C66.1936 32.9469 48.2952 3.09387 23.4005 -11.675H-0.523437L-0.523438 1389.33Z" fill="#FF9452"/>
<path opacity="0.5" d="M-0.523438 1389.33H17.1182C40.674 1374.15 62.9241 1357.06 79.874 1333.65C123.638 1273.27 123.337 1196.69 101.667 1127.13C90.3407 1090.76 72.5763 1056.98 57.2556 1022.44C36.0543 974.666 5.92621 923.518 1.83102 869.696C-1.34917 827.362 12.3424 786.92 37.0474 754.58C65.379 717.489 106.23 681.821 118.505 633.592C130.545 586.378 111.04 538.616 91.4119 494.507C71.784 450.399 47.8935 406.758 43.3743 358.003C36.8466 288.268 68.9051 225.748 86.7141 160.812C96.3775 125.553 93.599 91.9292 78.3452 59.134C66.1936 32.9469 48.2952 3.09387 23.4005 -11.675H-0.523437L-0.523438 1389.33Z" fill="#FF9452"/>
<path d="M-3.00008 1389.33H3.28219C62.8354 1214.28 76.5827 1022.63 44.5019 833.795C35.9768 783.593 22.0509 735.456 14.9764 684.81C5.34652 615.928 28.6344 553.49 54.4776 491.518C83.1663 422.718 103.274 354.921 97.4269 278.799C89.6159 177.776 46.4212 77.452 2.79121 -11.675H-3.00008L-3.00008 1389.33Z" fill="#FF9452"/>
</svg>
