<svg width="120" height="970" viewBox="0 0 120 970" fill="none" xmlns="http://www.w3.org/2000/svg">
<path opacity="0.25" d="M101.527 994.323H49.8744C25.1024 938.528 13.9773 873.381 18.6304 809.857C24.6226 727.712 55.7996 650.692 60.475 568.418C65.3401 482.21 41.6394 396.165 21.1299 313.669C1.04455 232.796 -6.63254 152.203 6.53456 69.1938C13.2297 26.9886 26.4414 -12.3561 39.2738 -52.7517C73.631 -160.909 117.473 -305.107 42.9784 -406.68H101.527L101.527 994.323Z" fill="#FF9452"/>
<path opacity="0.5" d="M122.732 994.323H105.091C81.535 979.145 59.2849 962.053 42.335 938.645C-1.42883 878.261 -1.12755 801.685 20.5424 732.125C31.8683 695.757 49.6327 661.97 64.9534 627.435C86.1547 579.661 116.283 528.513 120.378 474.691C123.558 432.357 109.867 391.915 85.1616 359.575C56.83 322.484 15.9785 286.816 3.70411 238.587C-8.33597 191.373 11.1692 143.61 30.7971 99.5023C50.425 55.394 74.3154 11.7527 78.8347 -37.0021C85.3624 -106.737 53.3039 -169.257 35.4948 -234.193C25.8315 -269.452 28.61 -303.076 43.8637 -335.871C56.0154 -362.058 73.9137 -391.911 98.8085 -406.68H122.732L122.732 994.323Z" fill="#FF9452"/>
<path opacity="0.5" d="M122.732 994.323H105.091C81.535 979.145 59.2849 962.053 42.335 938.645C-1.42883 878.261 -1.12755 801.685 20.5424 732.125C31.8683 695.757 49.6327 661.97 64.9534 627.435C86.1547 579.661 116.283 528.513 120.378 474.691C123.558 432.357 109.867 391.915 85.1616 359.575C56.83 322.484 15.9785 286.816 3.70411 238.587C-8.33597 191.373 11.1692 143.61 30.7971 99.5023C50.425 55.394 74.3154 11.7527 78.8347 -37.0021C85.3624 -106.737 53.3039 -169.257 35.4948 -234.193C25.8315 -269.452 28.61 -303.076 43.8637 -335.871C56.0154 -362.058 73.9137 -391.911 98.8085 -406.68H122.732L122.732 994.323Z" fill="#FF9452"/>
<path d="M125.209 994.323H118.927C59.3736 819.279 45.6262 627.622 77.7071 438.79C86.2322 388.587 100.158 340.451 107.233 289.805C116.862 220.922 93.5746 158.484 67.7313 96.5134C39.0427 27.7124 18.935 -40.0845 24.7821 -116.206C32.593 -217.23 75.7878 -317.553 119.418 -406.68H125.209L125.209 994.323Z" fill="#FF9452"/>
</svg>
