<svg width="60" height="60" viewBox="0 0 60 60" fill="none" xmlns="http://www.w3.org/2000/svg">
<g clip-path="url(#clip0_328_480)">
<mask id="mask0_328_480" style="mask-type:luminance" maskUnits="userSpaceOnUse" x="0" y="0" width="60" height="60">
<path d="M60 0H0V60H60V0Z" fill="white"/>
</mask>
<g mask="url(#mask0_328_480)">
<path d="M29.4141 0.584951C33.1925 0.508542 36.8468 1.93462 39.5748 4.55008C42.3028 7.16555 43.8814 10.7566 43.9641 14.535V14.928C43.9612 16.8051 43.5764 18.662 42.8329 20.3857C42.0894 22.1093 41.0029 23.6636 39.6396 24.9539C38.3106 26.3207 36.7215 27.4076 34.9658 28.1503C33.2101 28.893 31.3234 29.2766 29.4171 29.2785C26.1225 29.3491 22.9126 28.2309 20.3751 26.1285C18.5519 24.7387 17.1094 22.9108 16.1816 20.8145C15.2538 18.7182 14.8708 16.4214 15.0681 14.1375C15.2994 10.567 16.8391 7.20721 19.3926 4.70095C20.6936 3.36724 22.254 2.31401 23.9775 1.60614C25.701 0.898268 27.5512 0.550735 29.4141 0.584951ZM29.4141 6.48295C28.3609 6.44558 27.3137 6.657 26.3575 7.10005C25.4013 7.5431 24.563 8.20531 23.9106 9.03295C22.3961 10.6228 21.5513 12.7344 21.5513 14.9302C21.5513 17.126 22.3961 19.2376 23.9106 20.8274C24.5668 21.5744 25.3684 22.1797 26.2664 22.6063C27.1645 23.033 28.1401 23.272 29.1337 23.3088C30.1273 23.3456 31.1179 23.1793 32.0451 22.8203C32.9722 22.4612 33.8164 21.9168 34.5261 21.2205L34.9191 20.8274C36.4336 19.2376 37.2783 17.126 37.2783 14.9302C37.2783 12.7344 36.4336 10.6228 34.9191 9.03295C34.2373 8.23877 33.3931 7.60015 32.4434 7.16024C31.4937 6.72032 30.4607 6.48936 29.4141 6.48295Z" fill="#FF9452"/>
<path d="M29.4141 31.0537C33.1925 30.9773 36.8468 32.4034 39.5748 35.0188C42.3028 37.6343 43.8814 41.2254 43.9641 45.0037V45.3967C43.9612 47.2739 43.5764 49.1308 42.8329 50.8544C42.0894 52.5781 41.0029 54.1324 39.6396 55.4227C38.3106 56.7895 36.7215 57.8763 34.9658 58.619C33.2101 59.3618 31.3234 59.7454 29.4171 59.7472C26.1225 59.8179 22.9126 58.6996 20.3751 56.5972C18.5519 55.2075 17.1094 53.3796 16.1816 51.2833C15.2538 49.1869 14.8708 46.8902 15.0681 44.6062C15.2994 41.0358 16.8391 37.676 19.3926 35.1697C20.6936 33.836 22.254 32.7828 23.9775 32.0749C25.701 31.367 27.5512 31.0195 29.4141 31.0537ZM29.4141 36.9517C28.3608 36.9142 27.3136 37.1256 26.3574 37.5686C25.4012 38.0117 24.5629 38.674 23.9106 39.5017C22.3961 41.0916 21.5513 43.2032 21.5513 45.399C21.5513 47.5947 22.3961 49.7063 23.9106 51.2962C24.5668 52.0432 25.3684 52.6485 26.2664 53.0751C27.1645 53.5017 28.1401 53.7407 29.1337 53.7775C30.1273 53.8143 31.1179 53.6481 32.0451 53.289C32.9722 52.93 33.8164 52.3856 34.5261 51.6892L34.9191 51.2962C36.4336 49.7063 37.2783 47.5947 37.2783 45.399C37.2783 43.2032 36.4336 41.0916 34.9191 39.5017C34.2373 38.7075 33.3931 38.0689 32.4434 37.629C31.4937 37.1891 30.4607 36.9581 29.4141 36.9517Z" fill="#FF9452"/>
</g>
</g>
<defs>
<clipPath id="clip0_328_480">
<rect width="60" height="60" fill="white"/>
</clipPath>
</defs>
</svg>
