<svg width="224" height="53" viewBox="0 0 224 53" fill="none" xmlns="http://www.w3.org/2000/svg">
<g clip-path="url(#clip0_353_88)">
<mask id="mask0_353_88" style="mask-type:luminance" maskUnits="userSpaceOnUse" x="0" y="0" width="224" height="53">
<path d="M224 0H0V53H224V0Z" fill="white"/>
</mask>
<g mask="url(#mask0_353_88)">
<path d="M95.7668 0C96.297 0 96.8153 0.158099 97.2562 0.454304C97.6971 0.750508 98.0407 1.17152 98.2436 1.66409C98.4465 2.15666 98.4996 2.69867 98.3961 3.22158C98.2927 3.74449 98.0374 4.22481 97.6624 4.60181C97.2875 4.97881 96.8098 5.23554 96.2898 5.33956C95.7698 5.44357 95.2307 5.39019 94.7409 5.18616C94.251 4.98213 93.8323 4.63662 93.5377 4.19331C93.2432 3.75001 93.0859 3.22883 93.0859 2.69568C93.0859 1.98074 93.3684 1.29508 93.8711 0.789545C94.3739 0.284008 95.0558 0 95.7668 0Z" fill="white"/>
<path d="M0 8.52071C0 8.48099 0.0156914 8.4429 0.0436224 8.41481C0.0715533 8.38673 0.109436 8.37095 0.148936 8.37095H4.31915C4.35865 8.37095 4.39653 8.38673 4.42446 8.41481C4.45239 8.4429 4.46809 8.48099 4.46809 8.52071V10.3178C5.15303 9.53326 6.00263 8.91136 6.95559 8.49699C7.90854 8.08262 8.94109 7.88613 9.97872 7.92167C11.2139 7.8653 12.4432 8.12283 13.5532 8.67047C14.4841 9.25785 15.2932 10.0206 15.9362 10.9169C15.9362 11.0666 16.0851 11.0666 16.234 10.9169C16.9896 9.94363 17.9642 9.16463 19.0775 8.64393C20.1909 8.12322 21.4113 7.87569 22.6383 7.92167C28.2979 7.92167 31.1277 11.0666 31.1277 17.2068V28.888C31.1277 28.9077 31.1238 28.9272 31.1163 28.9454C31.1088 28.9635 31.0979 28.98 31.084 28.9939C31.0702 29.0078 31.0538 29.0189 31.0357 29.0264C31.0177 29.0339 30.9983 29.0378 30.9787 29.0378H26.3617C26.3222 29.0378 26.2843 29.022 26.2564 28.9939C26.2285 28.9659 26.2128 28.9278 26.2128 28.888V17.6561C26.3645 16.2461 26.0505 14.8252 25.3191 13.6125C24.9689 13.1699 24.5101 12.8266 23.9877 12.6165C23.4654 12.4064 22.8977 12.3368 22.3404 12.4145C21.712 12.357 21.0795 12.4648 20.5051 12.7273C19.9306 12.9899 19.434 13.3982 19.0638 13.9121C18.3493 15.459 17.9929 17.1487 18.0213 18.8541V28.888C18.0213 28.9278 18.0056 28.9659 17.9777 28.9939C17.9497 29.022 17.9118 29.0378 17.8723 29.0378H13.2553C13.2158 29.0378 13.1779 29.022 13.15 28.9939C13.1221 28.9659 13.1064 28.9278 13.1064 28.888V17.6561C13.2049 16.2301 12.839 14.8107 12.0638 13.6125C11.7136 13.1699 11.2547 12.8266 10.7324 12.6165C10.2101 12.4064 9.64234 12.3368 9.08511 12.4145C8.47804 12.3584 7.86717 12.4679 7.31676 12.7314C6.76636 12.995 6.29678 13.4028 5.95745 13.9121C4.91489 14.8106 4.76596 16.6077 4.76596 18.8541V28.888C4.76596 28.9077 4.76211 28.9272 4.75462 28.9454C4.74714 28.9635 4.73617 28.98 4.72233 28.9939C4.70851 29.0078 4.69209 29.0189 4.67402 29.0264C4.65595 29.0339 4.63658 29.0378 4.61702 29.0378H0.126596C0.109971 29.0378 0.093509 29.0345 0.0781497 29.0281C0.0627903 29.0217 0.0488345 29.0123 0.037079 29.0005C0.0253235 28.9887 0.0159986 28.9747 0.00963653 28.9592C0.0032745 28.9438 0 28.9272 0 28.9105L0 8.52071Z" fill="white"/>
<path d="M45.1274 7.92211C43.7148 7.89676 42.312 8.16274 41.0056 8.70364C39.6992 9.24455 38.5169 10.0489 37.5316 11.0671C35.5975 12.9766 34.431 15.5358 34.255 18.2555C34.1056 19.9956 34.3958 21.7454 35.0989 23.3425C35.8019 24.9396 36.8949 26.3322 38.2763 27.3909C40.1995 28.9914 42.6315 29.842 45.1274 29.787C46.5717 29.7856 48.001 29.4934 49.3312 28.9275C50.6613 28.3617 51.8653 27.5336 52.872 26.4923C53.905 25.5094 54.7282 24.3253 55.2915 23.0123C55.8548 21.6992 56.1464 20.2846 56.1486 18.8546V18.5551C56.0877 15.676 54.8927 12.9391 52.8262 10.9454C50.7597 8.95168 47.9906 7.86431 45.1274 7.92211ZM49.2976 23.3474L48.9997 23.6469C48.462 24.1774 47.8225 24.592 47.12 24.8655C46.4176 25.139 45.6671 25.2656 44.9143 25.2376C44.1616 25.2096 43.4224 25.0275 42.742 24.7025C42.0617 24.3775 41.4543 23.9164 40.9572 23.3474C39.8099 22.1361 39.1699 20.5274 39.1699 18.8546C39.1699 17.1818 39.8099 15.5731 40.9572 14.3618C41.451 13.7303 42.086 13.2249 42.8106 12.8867C43.5352 12.5484 44.329 12.3867 45.1274 12.4149C45.9205 12.4204 46.7033 12.5971 47.4227 12.933C48.1422 13.2688 48.7815 13.7561 49.2976 14.3618C50.4449 15.5731 51.0848 17.1818 51.0848 18.8546C51.0848 20.5274 50.4449 22.1361 49.2976 23.3474Z" fill="white"/>
<path d="M58.9788 28.8881V8.52073C58.9788 8.48102 58.9945 8.44292 59.0224 8.41484C59.0503 8.38675 59.0882 8.37097 59.1277 8.37097H63.2979C63.3374 8.37097 63.3753 8.38675 63.4032 8.41484C63.4312 8.44292 63.4469 8.48102 63.4469 8.52073V10.4676C63.8571 9.65549 64.5059 8.98994 65.3053 8.56129C66.1046 8.13263 67.0157 7.96162 67.915 8.07145H68.3618V12.714C68.2815 12.7954 68.1768 12.8481 68.0639 12.8638C65.2341 12.8638 63.8937 14.6609 63.8937 17.8058V29.1876C63.8937 29.2273 63.878 29.2654 63.8501 29.2935C63.8221 29.3216 63.7842 29.3374 63.7447 29.3374H59.1277C59.0712 29.2784 59.0284 29.2074 59.0027 29.1297C58.9769 29.0519 58.9687 28.9694 58.9788 28.8881Z" fill="white"/>
<path d="M70.8945 28.8892V8.52188C70.8945 8.48216 70.9102 8.44407 70.9382 8.41599C70.9661 8.3879 71.004 8.37212 71.0435 8.37212H75.2137C75.2532 8.37212 75.2911 8.3879 75.319 8.41599C75.3469 8.44407 75.3626 8.48216 75.3626 8.52188V10.319C76.155 9.53967 77.0586 8.8835 78.0435 8.37212C79.0239 7.93167 80.1073 7.77603 81.1711 7.92284C82.2998 7.86368 83.428 8.04675 84.4809 8.45989C85.5337 8.87303 86.4871 9.50677 87.2775 10.319C88.6179 11.9664 89.2137 14.5123 89.2137 18.1065V29.039C89.2137 29.0586 89.2098 29.0781 89.2023 29.0963C89.1949 29.1145 89.1839 29.131 89.1701 29.1449C89.1562 29.1588 89.1398 29.1698 89.1217 29.1773C89.1037 29.1849 89.0843 29.1887 89.0647 29.1887H84.4477C84.4282 29.1887 84.4088 29.1849 84.3907 29.1773C84.3727 29.1698 84.3562 29.1588 84.3424 29.1449C84.3286 29.131 84.3176 29.1145 84.3101 29.0963C84.3026 29.0781 84.2988 29.0586 84.2988 29.039V19.0051C84.4522 17.2583 84.1439 15.5017 83.4052 13.9132C83.0658 13.404 82.5963 12.9961 82.0459 12.7326C81.4955 12.469 80.8846 12.3595 80.2775 12.4156C79.61 12.3362 78.9338 12.4488 78.3275 12.7404C77.7211 13.032 77.2095 13.4907 76.852 14.063C75.9954 15.7217 75.6334 17.5938 75.8094 19.4543V29.039C75.8094 29.0586 75.8056 29.0781 75.7981 29.0963C75.7906 29.1145 75.7796 29.131 75.7658 29.1449C75.752 29.1588 75.7356 29.1698 75.7175 29.1773C75.6994 29.1849 75.68 29.1887 75.6605 29.1887H71.0435C70.9625 29.108 70.9102 29.0028 70.8945 28.8892Z" fill="white"/>
<path d="M93.2345 8.52085C93.2345 8.48113 93.2501 8.44304 93.2781 8.41496C93.306 8.38687 93.3439 8.37109 93.3834 8.37109H98.0004C98.0399 8.37109 98.0778 8.38687 98.1057 8.41496C98.1337 8.44304 98.1494 8.48113 98.1494 8.52085V28.8882C98.1494 28.9279 98.1337 28.966 98.1057 28.9941C98.0778 29.0222 98.0399 29.0379 98.0004 29.0379H93.3655C93.348 29.0382 93.3306 29.0348 93.3144 29.0281C93.2982 29.0213 93.2836 29.0114 93.2713 28.9988C93.2591 28.9862 93.2495 28.9712 93.2431 28.9548C93.2368 28.9383 93.2338 28.9208 93.2345 28.9032V8.52085Z" fill="white"/>
<path d="M102.17 28.8892V8.52188C102.17 8.48216 102.186 8.44407 102.214 8.41599C102.241 8.3879 102.279 8.37212 102.319 8.37212H106.489C106.529 8.37212 106.566 8.3879 106.594 8.41599C106.622 8.44407 106.638 8.48216 106.638 8.52188V10.319C107.43 9.53967 108.334 8.8835 109.319 8.37212C110.299 7.93167 111.383 7.77603 112.447 7.92284C113.575 7.86368 114.703 8.04675 115.756 8.45989C116.809 8.87303 117.762 9.50677 118.553 10.319C119.893 11.9664 120.489 14.5123 120.489 18.1065V29.039C120.489 29.0586 120.485 29.0781 120.478 29.0963C120.47 29.1145 120.459 29.131 120.445 29.1449C120.432 29.1588 120.415 29.1698 120.397 29.1773C120.379 29.1849 120.36 29.1887 120.34 29.1887H115.723C115.704 29.1887 115.684 29.1849 115.666 29.1773C115.648 29.1698 115.632 29.1588 115.618 29.1449C115.604 29.131 115.593 29.1145 115.586 29.0963C115.578 29.0781 115.574 29.0586 115.574 29.039V19.0051C115.728 17.2583 115.419 15.5017 114.681 13.9132C114.341 13.404 113.872 12.9961 113.321 12.7326C112.771 12.469 112.16 12.3595 111.553 12.4156C110.885 12.3362 110.209 12.4488 109.603 12.7404C108.996 13.032 108.485 13.4907 108.127 14.063C107.271 15.7217 106.909 17.5938 107.085 19.4543V29.039C107.085 29.0586 107.081 29.0781 107.073 29.0963C107.066 29.1145 107.055 29.131 107.041 29.1449C107.027 29.1588 107.011 29.1698 106.993 29.1773C106.975 29.1849 106.955 29.1887 106.936 29.1887H102.319C102.238 29.108 102.186 29.0028 102.17 28.8892Z" fill="white"/>
<path d="M149.83 13.0133C149.83 12.9736 149.815 12.9355 149.787 12.9074C149.759 12.8793 149.721 12.8635 149.681 12.8635H147.596C147.557 12.8635 147.519 12.8478 147.491 12.8197C147.463 12.7916 147.447 12.7535 147.447 12.7138V8.5205C147.447 8.48078 147.463 8.44269 147.491 8.41461C147.519 8.38652 147.557 8.37074 147.596 8.37074H149.681C149.721 8.37074 149.759 8.35497 149.787 8.32688C149.815 8.29879 149.83 8.2607 149.83 8.22098V1.48179C149.83 1.44207 149.846 1.40398 149.874 1.37589C149.902 1.34781 149.94 1.33203 149.979 1.33203H154.596C154.636 1.33203 154.674 1.34781 154.702 1.37589C154.729 1.40398 154.745 1.44207 154.745 1.48179V8.07122C154.745 8.11094 154.761 8.14903 154.789 8.17712C154.817 8.2052 154.855 8.22098 154.894 8.22098H157.575C157.614 8.22098 157.652 8.23676 157.68 8.26485C157.708 8.29293 157.724 8.33102 157.724 8.37074V12.564C157.724 12.6037 157.708 12.6418 157.68 12.6699C157.652 12.698 157.614 12.7138 157.575 12.7138H154.894C154.855 12.7138 154.817 12.7296 154.789 12.7576C154.761 12.7857 154.745 12.8238 154.745 12.8635V28.8878C154.745 28.9276 154.729 28.9656 154.702 28.9937C154.674 29.0218 154.636 29.0376 154.596 29.0376H149.966C149.948 29.0376 149.93 29.0341 149.914 29.0272C149.897 29.0204 149.883 29.0103 149.87 28.9977C149.857 28.985 149.847 28.97 149.841 28.9535C149.834 28.9369 149.83 28.9192 149.83 28.9013V13.0133Z" fill="white"/>
<path d="M160.391 29.0674C160.355 29.0674 160.32 29.0529 160.294 29.0271C160.268 29.0012 160.254 28.9662 160.254 28.9297V8.52039C160.254 8.48067 160.27 8.44258 160.298 8.41449C160.325 8.38641 160.363 8.37063 160.403 8.37063H164.573C164.613 8.37063 164.65 8.38641 164.678 8.41449C164.706 8.44258 164.722 8.48067 164.722 8.52039V10.4673C165.133 9.65557 165.782 8.9904 166.581 8.56182C167.38 8.13323 168.291 7.96193 169.19 8.07111H169.488V12.7137C169.488 12.7534 169.472 12.7915 169.444 12.8196C169.416 12.8476 169.379 12.8634 169.339 12.8634C168.752 12.8214 168.164 12.9157 167.619 13.139C167.074 13.3624 166.588 13.7088 166.198 14.1514C165.443 15.2123 165.08 16.5044 165.17 17.8055V28.9282C165.17 28.9652 165.155 29.0007 165.129 29.0267C165.103 29.0528 165.067 29.0674 165.03 29.0674H160.391Z" fill="white"/>
<path d="M192.575 8.37101H188.405C188.365 8.37101 188.328 8.38679 188.3 8.41488C188.272 8.44296 188.256 8.48106 188.256 8.52077V11.2165C187.538 10.1446 186.565 9.26959 185.426 8.67053C184.211 8.1216 182.885 7.86521 181.554 7.92173C180.163 7.89715 178.783 8.1641 177.501 8.70557C176.219 9.24705 175.063 10.0512 174.107 11.0667C172.14 13.231 171.073 16.0722 171.128 19.004C171.076 20.4371 171.312 21.8661 171.824 23.2046C172.336 24.5431 173.113 25.7633 174.107 26.7915C175.071 27.7865 176.232 28.5671 177.515 29.083C178.797 29.5989 180.173 29.8387 181.554 29.7867C182.879 29.7696 184.19 29.516 185.426 29.0379C186.627 28.4066 187.69 27.5411 188.554 26.492V29.0379C188.554 29.0776 188.57 29.1157 188.597 29.1438C188.625 29.1719 188.663 29.1876 188.703 29.1876H192.873C192.913 29.1876 192.95 29.1719 192.978 29.1438C193.006 29.1157 193.022 29.0776 193.022 29.0379V8.67053C193.022 8.52077 193.022 8.37101 192.575 8.37101ZM186.767 23.347C186.213 23.935 185.542 24.3989 184.798 24.7086C184.053 25.0182 183.253 25.1666 182.447 25.1441C180.78 25.1625 179.174 24.5164 177.979 23.347C177.395 22.7901 176.933 22.1154 176.625 21.3671C176.317 20.6187 176.17 19.8135 176.192 19.004C176.171 17.238 176.809 15.5283 177.979 14.2116C178.542 13.6348 179.214 13.1782 179.956 12.8693C180.699 12.5605 181.495 12.4058 182.299 12.4145C183.104 12.392 183.904 12.5404 184.649 12.8501C185.393 13.1597 186.064 13.6237 186.618 14.2116C187.762 15.4851 188.398 17.1382 188.405 18.8542C188.476 19.678 188.366 20.5075 188.083 21.2839C187.8 22.0603 187.35 22.7646 186.767 23.347Z" fill="white"/>
<path d="M196.744 8.52085C196.744 8.48113 196.76 8.44304 196.788 8.41496C196.816 8.38687 196.854 8.37109 196.893 8.37109H201.51C201.55 8.37109 201.587 8.38687 201.615 8.41496C201.643 8.44304 201.659 8.48113 201.659 8.52085V28.8882C201.659 28.9279 201.643 28.966 201.615 28.9941C201.587 29.0222 201.55 29.0379 201.51 29.0379H196.874C196.839 29.0379 196.806 29.0242 196.782 28.9998C196.758 28.9754 196.744 28.9422 196.744 28.9077V8.52085Z" fill="white"/>
<path d="M205.682 28.8892V8.52188C205.682 8.48216 205.697 8.44407 205.725 8.41599C205.753 8.3879 205.791 8.37212 205.831 8.37212H210.001C210.04 8.37212 210.078 8.3879 210.106 8.41599C210.134 8.44407 210.15 8.48216 210.15 8.52188V10.319C210.942 9.53967 211.846 8.8835 212.831 8.37212C213.811 7.93167 214.894 7.77603 215.958 7.92284C217.087 7.86368 218.215 8.04675 219.268 8.45989C220.321 8.87303 221.274 9.50677 222.065 10.319C223.405 11.9664 224.001 14.5123 224.001 18.1065V29.039C224.001 29.0586 223.997 29.0781 223.989 29.0963C223.982 29.1145 223.971 29.131 223.957 29.1449C223.943 29.1588 223.927 29.1698 223.909 29.1773C223.891 29.1849 223.871 29.1887 223.852 29.1887H219.235C219.215 29.1887 219.196 29.1849 219.178 29.1773C219.16 29.1698 219.143 29.1588 219.13 29.1449C219.116 29.131 219.105 29.1145 219.097 29.0963C219.09 29.0781 219.086 29.0586 219.086 29.039V19.0051C219.239 17.2583 218.931 15.5017 218.192 13.9132C217.853 13.404 217.383 12.9961 216.833 12.7326C216.283 12.469 215.672 12.3595 215.065 12.4156C214.397 12.3362 213.721 12.4488 213.115 12.7404C212.508 13.032 211.997 13.4907 211.639 14.063C210.783 15.7217 210.421 17.5938 210.597 19.4543V29.039C210.597 29.0586 210.593 29.0781 210.585 29.0963C210.578 29.1145 210.567 29.131 210.553 29.1449C210.539 29.1588 210.523 29.1698 210.505 29.1773C210.487 29.1849 210.467 29.1887 210.448 29.1887H205.831C205.75 29.108 205.697 29.0028 205.682 28.8892Z" fill="white"/>
<path d="M134.489 7.92211C133.076 7.89676 131.673 8.16274 130.367 8.70364C129.061 9.24455 127.878 10.0489 126.893 11.0671C124.959 12.9766 123.792 15.5358 123.616 18.2555C123.467 19.9956 123.757 21.7454 124.46 23.3425C125.163 24.9396 126.256 26.3322 127.638 27.3909C129.561 28.9914 131.993 29.842 134.489 29.787C135.933 29.7856 137.362 29.4934 138.693 28.9275C140.023 28.3617 141.227 27.5336 142.233 26.4923C143.266 25.5094 144.089 24.3253 144.653 23.0123C145.216 21.6992 145.508 20.2846 145.51 18.8546V18.5551C145.449 15.676 144.254 12.9391 142.187 10.9454C140.121 8.95168 137.352 7.86431 134.489 7.92211ZM138.659 23.3474L138.361 23.6469C137.823 24.1774 137.184 24.592 136.481 24.8655C135.779 25.139 135.028 25.2656 134.276 25.2376C133.523 25.2096 132.784 25.0275 132.103 24.7025C131.423 24.3775 130.816 23.9164 130.318 23.3474C129.171 22.1361 128.531 20.5274 128.531 18.8546C128.531 17.1818 129.171 15.5731 130.318 14.3618C130.812 13.7303 131.447 13.2249 132.172 12.8867C132.897 12.5484 133.69 12.3867 134.489 12.4149C135.282 12.4204 136.065 12.5971 136.784 12.933C137.504 13.2688 138.143 13.7561 138.659 14.3618C139.806 15.5731 140.446 17.1818 140.446 18.8546C140.446 20.5274 139.806 22.1361 138.659 23.3474Z" fill="white"/>
<path d="M134.49 31.135C133.077 31.1096 131.675 31.3756 130.368 31.9165C129.062 32.4574 127.879 33.2618 126.894 34.28C124.96 36.1894 123.793 38.7487 123.618 41.4684C123.528 42.9557 123.743 44.4458 124.25 45.846C124.756 47.2462 125.544 48.5267 126.564 49.6081C127.583 50.6894 128.813 51.5485 130.176 52.132C131.54 52.7155 133.008 53.0109 134.49 52.9999C135.934 52.9985 137.364 52.7063 138.694 52.1404C140.024 51.5745 141.228 50.7465 142.235 49.7052C143.268 48.7223 144.091 47.5382 144.654 46.2252C145.217 44.9121 145.509 43.4975 145.511 42.0675V41.7679C145.45 38.8889 144.255 36.152 142.189 34.1583C140.122 32.1646 137.353 31.0772 134.49 31.135ZM138.66 46.5603L138.362 46.8598C137.825 47.3903 137.185 47.8049 136.483 48.0784C135.78 48.3519 135.03 48.4785 134.277 48.4505C133.524 48.4225 132.785 48.2404 132.105 47.9154C131.424 47.5904 130.817 47.1293 130.32 46.5603C129.172 45.3489 128.532 43.7403 128.532 42.0675C128.532 40.3947 129.172 38.786 130.32 37.5747C130.814 36.9432 131.449 36.4378 132.173 36.0995C132.898 35.7613 133.691 35.5996 134.49 35.6278C135.283 35.6333 136.066 35.81 136.785 36.1459C137.505 36.4817 138.144 36.969 138.66 37.5747C139.807 38.786 140.447 40.3947 140.447 42.0675C140.447 43.7403 139.807 45.3489 138.66 46.5603Z" fill="white"/>
<path d="M199.277 0C199.807 0 200.325 0.158099 200.766 0.454304C201.207 0.750508 201.55 1.17152 201.753 1.66409C201.956 2.15666 202.009 2.69867 201.906 3.22158C201.802 3.74449 201.547 4.22481 201.172 4.60181C200.797 4.97881 200.32 5.23554 199.8 5.33956C199.28 5.44357 198.741 5.39019 198.251 5.18616C197.761 4.98213 197.342 4.63662 197.048 4.19331C196.753 3.75001 196.596 3.22883 196.596 2.69568C196.596 1.98074 196.878 1.29508 197.381 0.789545C197.884 0.284008 198.566 0 199.277 0Z" fill="white"/>
</g>
</g>
<defs>
<clipPath id="clip0_353_88">
<rect width="224" height="53" fill="white"/>
</clipPath>
</defs>
</svg>
