<svg width="1401" height="126" viewBox="0 0 1401 126" fill="none" xmlns="http://www.w3.org/2000/svg">
<path opacity="0.25" d="M-0.00390625 23.6825L-0.00390625 75.3355C55.791 100.107 120.938 111.233 184.461 106.579C266.607 100.587 343.627 69.4103 425.901 64.7348C512.109 59.8697 598.154 83.5705 680.65 104.08C761.523 124.165 842.116 131.842 925.125 118.675C967.33 111.98 1006.68 98.7684 1047.07 85.9361C1155.23 51.5789 1299.43 7.73692 1401 82.2314V23.6825L-0.00390625 23.6825Z" fill="#FF9452"/>
<path opacity="0.5" d="M-0.00390625 2.47693L-0.00390625 20.1186C15.1736 43.6743 32.2659 65.9245 55.6743 82.8743C116.058 126.638 192.634 126.337 262.194 104.667C298.562 93.3411 332.349 75.5766 366.884 60.2559C414.658 39.0547 465.806 8.92657 519.628 4.83138C561.962 1.6512 602.404 15.3427 634.744 40.0478C671.835 68.3794 707.503 109.231 755.732 121.505C802.946 133.545 850.708 114.04 894.817 94.4123C938.925 74.7844 982.566 50.8939 1031.32 46.3747C1101.06 39.8469 1163.58 71.9055 1228.51 89.7145C1263.77 99.3778 1297.39 96.5993 1330.19 81.3456C1356.38 69.1939 1386.23 51.2956 1401 26.4009V2.47693L-0.00390625 2.47693Z" fill="#FF9452"/>
<path opacity="0.5" d="M-0.00390625 2.47693L-0.00390625 20.1186C15.1736 43.6743 32.2659 65.9245 55.6743 82.8743C116.058 126.638 192.634 126.337 262.194 104.667C298.562 93.3411 332.349 75.5766 366.884 60.2559C414.658 39.0547 465.806 8.92657 519.628 4.83138C561.962 1.6512 602.404 15.3427 634.744 40.0478C671.835 68.3794 707.503 109.231 755.732 121.505C802.946 133.545 850.708 114.04 894.817 94.4123C938.925 74.7844 982.566 50.8939 1031.32 46.3747C1101.06 39.8469 1163.58 71.9055 1228.51 89.7145C1263.77 99.3778 1297.39 96.5993 1330.19 81.3456C1356.38 69.1939 1386.23 51.2956 1401 26.4009V2.47693L-0.00390625 2.47693Z" fill="#FF9452"/>
<path d="M-0.00390625 -8.24726e-05L-0.00390625 6.28219C175.04 65.8354 366.697 79.5827 555.529 47.5019C605.731 38.9768 653.868 25.0509 704.514 17.9764C773.397 8.34652 835.835 31.6344 897.806 57.4776C966.607 86.1663 1034.4 106.274 1110.52 100.427C1211.55 92.6159 1311.87 49.4212 1401 5.79121V-8.24726e-05L-0.00390625 -8.24726e-05Z" fill="#FF9452"/>
</svg>
