<svg width="942" height="169" viewBox="0 0 942 169" fill="none" xmlns="http://www.w3.org/2000/svg">
<path d="M526.701 0C528.41 0 530.081 0.50943 531.503 1.46387C532.924 2.41831 534.032 3.77489 534.687 5.36206C535.341 6.94924 535.512 8.69572 535.178 10.3807C534.845 12.0656 534.022 13.6133 532.813 14.8281C531.604 16.0428 530.064 16.8701 528.387 17.2053C526.71 17.5404 524.972 17.3684 523.393 16.711C521.813 16.0535 520.463 14.9402 519.513 13.5118C518.564 12.0834 518.057 10.404 518.057 8.68608C518.057 6.38239 518.967 4.17305 520.588 2.5441C522.209 0.915138 524.408 0 526.701 0Z" fill="white"/>
<path d="M861.343 1.7793C863.053 1.7793 864.724 2.28873 866.146 3.24317C867.567 4.19761 868.675 5.55419 869.329 7.14136C869.983 8.72853 870.155 10.475 869.821 12.16C869.487 13.8449 868.664 15.3926 867.455 16.6074C866.247 17.8221 864.706 18.6494 863.03 18.9846C861.353 19.3197 859.615 19.1477 858.035 18.4903C856.456 17.8328 855.106 16.7195 854.156 15.2911C853.206 13.8627 852.699 12.1833 852.699 10.4654C852.699 8.16169 853.61 5.95235 855.231 4.32339C856.852 2.69444 859.051 1.7793 861.343 1.7793Z" fill="white"/>
<path d="M518.561 27.1662C518.561 27.0382 518.611 26.9154 518.701 26.8249C518.792 26.7344 518.914 26.6836 519.041 26.6836H533.928C534.055 26.6836 534.177 26.7344 534.267 26.8249C534.357 26.9154 534.408 27.0382 534.408 27.1662V92.7943C534.408 92.9223 534.357 93.0451 534.267 93.1356C534.177 93.2261 534.055 93.2769 533.928 93.2769H518.983C518.927 93.2776 518.871 93.2667 518.819 93.245C518.766 93.2233 518.719 93.1912 518.68 93.1506C518.64 93.11 518.609 93.0618 518.589 93.0088C518.568 92.9559 518.559 92.8993 518.561 92.8426V27.1662Z" fill="white"/>
<path d="M548.803 92.6358V27.0076C548.803 26.8796 548.853 26.7569 548.943 26.6664C549.033 26.5759 549.156 26.525 549.283 26.525H562.729C562.856 26.525 562.979 26.5759 563.069 26.6664C563.159 26.7569 563.209 26.8796 563.209 27.0076V32.7983C565.764 30.2871 568.678 28.1728 571.853 26.525C575.014 25.1058 578.508 24.6043 581.938 25.0773C585.577 24.8867 589.215 25.4766 592.609 26.8078C596.004 28.139 599.078 30.1811 601.627 32.7983C605.949 38.1065 607.87 46.31 607.87 57.8914V93.1183C607.87 93.1817 607.857 93.2444 607.833 93.303C607.809 93.3615 607.774 93.4147 607.729 93.4595C607.684 93.5043 607.631 93.5399 607.573 93.5641C607.515 93.5884 607.452 93.6009 607.389 93.6009H592.503C592.44 93.6009 592.377 93.5884 592.319 93.5641C592.261 93.5399 592.208 93.5043 592.163 93.4595C592.118 93.4147 592.083 93.3615 592.059 93.303C592.035 93.2444 592.022 93.1817 592.022 93.1183V60.7868C592.517 55.1582 591.523 49.4982 589.141 44.3797C588.047 42.7388 586.533 41.4246 584.758 40.5754C582.984 39.7262 581.014 39.3734 579.057 39.5541C576.904 39.2982 574.724 39.6611 572.769 40.6007C570.814 41.5403 569.164 43.0181 568.011 44.8623C565.25 50.2069 564.082 56.2393 564.65 62.2345V93.1183C564.65 93.1817 564.638 93.2444 564.613 93.303C564.589 93.3615 564.554 93.4147 564.509 93.4595C564.465 93.5043 564.412 93.5399 564.354 93.5641C564.295 93.5884 564.233 93.6009 564.17 93.6009H549.283C549.022 93.3408 548.853 93.0017 548.803 92.6358Z" fill="white"/>
<path d="M701.908 41.9346C701.908 41.8066 701.858 41.6839 701.767 41.5934C701.677 41.5029 701.555 41.4521 701.428 41.4521H694.705C694.577 41.4521 694.455 41.4012 694.365 41.3107C694.275 41.2202 694.225 41.0975 694.225 40.9695V27.4578C694.225 27.3298 694.275 27.2071 694.365 27.1166C694.455 27.0261 694.577 26.9753 694.705 26.9753H701.428C701.555 26.9753 701.677 26.9244 701.767 26.8339C701.858 26.7434 701.908 26.6207 701.908 26.4927V4.77748C701.908 4.6495 701.959 4.52676 702.049 4.43626C702.139 4.34576 702.261 4.29492 702.388 4.29492H717.275C717.402 4.29492 717.525 4.34576 717.615 4.43626C717.705 4.52676 717.755 4.6495 717.755 4.77748V26.0101C717.755 26.1381 717.806 26.2609 717.896 26.3514C717.986 26.4418 718.108 26.4927 718.236 26.4927H726.879C727.007 26.4927 727.129 26.5435 727.219 26.634C727.309 26.7245 727.36 26.8473 727.36 26.9753V40.4869C727.36 40.6149 727.309 40.7377 727.219 40.8282C727.129 40.9187 727.007 40.9695 726.879 40.9695H718.236C718.108 40.9695 717.986 41.0203 717.896 41.1108C717.806 41.2013 717.755 41.3241 717.755 41.4521V93.086C717.755 93.214 717.705 93.3367 717.615 93.4272C717.525 93.5177 717.402 93.5686 717.275 93.5686H702.345C702.288 93.5686 702.231 93.5572 702.178 93.5351C702.125 93.5131 702.077 93.4807 702.036 93.4399C701.996 93.3992 701.963 93.3507 701.941 93.2975C701.919 93.2442 701.908 93.1871 701.908 93.1294V41.9346Z" fill="white"/>
<path d="M736.032 93.5531C735.914 93.5531 735.802 93.5064 735.719 93.4231C735.636 93.3398 735.59 93.2269 735.59 93.1092V27.3459C735.59 27.2179 735.64 27.0951 735.73 27.0046C735.821 26.9141 735.943 26.8633 736.07 26.8633H749.516C749.644 26.8633 749.766 26.9141 749.856 27.0046C749.946 27.0951 749.996 27.2179 749.996 27.3459V33.6191C751.321 31.0037 753.413 28.8604 755.99 27.4794C758.567 26.0984 761.504 25.5464 764.403 25.8982H765.363V40.8575C765.363 40.9855 765.313 41.1083 765.223 41.1988C765.133 41.2893 765.011 41.3401 764.883 41.3401C762.991 41.2047 761.094 41.5086 759.338 42.2282C757.581 42.9479 756.014 44.064 754.755 45.4901C752.323 48.9087 751.151 53.0721 751.442 57.2646V93.1043C751.441 93.2238 751.392 93.338 751.308 93.422C751.223 93.506 751.109 93.5531 750.99 93.5531H736.032Z" fill="white"/>
<path d="M853.891 27.1662C853.891 27.0382 853.941 26.9154 854.031 26.8249C854.121 26.7344 854.243 26.6836 854.371 26.6836H869.258C869.385 26.6836 869.507 26.7344 869.597 26.8249C869.687 26.9154 869.738 27.0382 869.738 27.1662V92.7943C869.738 92.9223 869.687 93.0451 869.597 93.1356C869.507 93.2261 869.385 93.2769 869.258 93.2769H854.308C854.198 93.2769 854.091 93.2327 854.013 93.1539C853.935 93.0752 853.891 92.9684 853.891 92.8571V27.1662Z" fill="white"/>
<path d="M882.354 92.6358V27.0076C882.354 26.8796 882.404 26.7569 882.494 26.6664C882.584 26.5759 882.706 26.525 882.834 26.525H896.28C896.407 26.525 896.529 26.5759 896.619 26.6664C896.709 26.7569 896.76 26.8796 896.76 27.0076V32.7983C899.315 30.2871 902.228 28.1728 905.404 26.525C908.565 25.1058 912.058 24.6043 915.489 25.0773C919.128 24.8867 922.766 25.4766 926.16 26.8078C929.555 28.139 932.629 30.1811 935.178 32.7983C939.5 38.1065 941.42 46.31 941.42 57.8914V93.1183C941.42 93.1817 941.408 93.2444 941.384 93.303C941.36 93.3615 941.324 93.4147 941.28 93.4595C941.235 93.5043 941.182 93.5399 941.124 93.5641C941.066 93.5884 941.003 93.6009 940.94 93.6009H926.053C925.99 93.6009 925.928 93.5884 925.87 93.5641C925.811 93.5399 925.758 93.5043 925.714 93.4595C925.669 93.4147 925.634 93.3615 925.61 93.303C925.586 93.2444 925.573 93.1817 925.573 93.1183V60.7868C926.068 55.1582 925.074 49.4983 922.692 44.3797C921.598 42.7388 920.084 41.4246 918.309 40.5754C916.534 39.7262 914.565 39.3734 912.607 39.5541C910.455 39.2982 908.275 39.6611 906.32 40.6007C904.365 41.5403 902.715 43.0181 901.562 44.8623C898.801 50.207 897.633 56.2393 898.201 62.2345V93.1183C898.201 93.1817 898.188 93.2444 898.164 93.303C898.14 93.3615 898.105 93.4147 898.06 93.4595C898.015 93.5043 897.963 93.5399 897.904 93.5641C897.846 93.5884 897.784 93.6009 897.72 93.6009H882.834C882.573 93.3408 882.404 93.0017 882.354 92.6358Z" fill="white"/>
<path d="M652.447 22.8586C647.892 22.7769 643.369 23.634 639.157 25.3769C634.945 27.1198 631.132 29.7116 627.956 32.9924C621.719 39.1452 617.958 47.3915 617.391 56.1553C616.909 61.7622 617.845 67.4005 620.112 72.5467C622.378 77.6929 625.903 82.18 630.357 85.5915C636.558 90.7487 644.399 93.4896 652.447 93.3124C657.104 93.3079 661.712 92.3662 666.001 90.5428C670.29 88.7195 674.172 86.0514 677.418 82.6961C680.749 79.5288 683.403 75.7135 685.219 71.4825C687.035 67.2516 687.976 62.6934 687.983 58.0855V57.1204C687.786 47.8435 683.933 39.0244 677.27 32.6003C670.607 26.1761 661.679 22.6724 652.447 22.8586ZM665.893 72.5623L664.932 73.5274C663.199 75.2368 661.137 76.5729 658.872 77.4542C656.607 78.3355 654.187 78.7434 651.76 78.6531C649.333 78.5627 646.95 77.976 644.756 76.9288C642.562 75.8816 640.604 74.3958 639.001 72.5623C635.301 68.6592 633.238 63.4756 633.238 58.0855C633.238 52.6954 635.301 47.5119 639.001 43.6087C640.593 41.574 642.64 39.9455 644.977 38.8555C647.313 37.7655 649.873 37.2447 652.447 37.3354C655.004 37.3532 657.528 37.9225 659.848 39.0048C662.168 40.087 664.229 41.657 665.893 43.6087C669.592 47.5119 671.656 52.6954 671.656 58.0855C671.656 63.4756 669.592 68.6592 665.893 72.5623Z" fill="white"/>
<path d="M652.446 98.5461C647.892 98.4644 643.369 99.3215 639.156 101.064C634.944 102.807 631.132 105.399 627.955 108.68C621.719 114.833 617.958 123.079 617.39 131.843C617.101 136.635 617.794 141.436 619.428 145.948C621.062 150.46 623.602 154.586 626.889 158.07C630.176 161.555 634.141 164.323 638.538 166.203C642.934 168.083 647.668 169.035 652.446 169C657.103 168.995 661.712 168.054 666.001 166.23C670.29 164.407 674.172 161.739 677.418 158.384C680.748 155.216 683.402 151.401 685.219 147.17C687.035 142.939 687.975 138.381 687.982 133.773V132.808C687.786 123.531 683.933 114.712 677.27 108.288C670.607 101.864 661.678 98.3599 652.446 98.5461ZM665.892 148.25L664.932 149.215C663.198 150.924 661.136 152.26 658.871 153.142C656.606 154.023 654.186 154.431 651.759 154.341C649.332 154.25 646.949 153.664 644.755 152.616C642.561 151.569 640.603 150.083 639 148.25C635.301 144.347 633.238 139.163 633.238 133.773C633.238 128.383 635.301 123.199 639 119.296C640.592 117.262 642.64 115.633 644.976 114.543C647.313 113.453 649.872 112.932 652.446 113.023C655.004 113.041 657.528 113.61 659.847 114.692C662.167 115.775 664.228 117.345 665.892 119.296C669.592 123.199 671.655 128.383 671.655 133.773C671.655 139.163 669.592 144.347 665.892 148.25Z" fill="white"/>
<path d="M838.565 26.3767H825.119C824.992 26.3767 824.87 26.4275 824.78 26.518C824.69 26.6085 824.639 26.7313 824.639 26.8593V35.5453C822.323 32.0916 819.187 29.2721 815.515 27.3418C811.596 25.573 807.321 24.7469 803.029 24.929C798.546 24.8498 794.096 25.71 789.962 27.4547C785.828 29.1995 782.101 31.7905 779.018 35.0628C772.675 42.0368 769.237 51.1916 769.414 60.6385C769.244 65.2563 770.007 69.8608 771.658 74.1738C773.309 78.4868 775.813 82.4186 779.018 85.7316C782.127 88.9377 785.87 91.4532 790.005 93.1155C794.141 94.7779 798.578 95.5503 803.029 95.3828C807.3 95.3277 811.528 94.5107 815.515 92.97C819.385 90.9359 822.814 88.1471 825.6 84.7665V92.97C825.6 93.098 825.65 93.2207 825.74 93.3112C825.83 93.4017 825.952 93.4526 826.08 93.4526H839.526C839.653 93.4526 839.775 93.4017 839.865 93.3112C839.955 93.2207 840.006 93.098 840.006 92.97V27.3418C840.006 26.8593 840.006 26.3767 838.565 26.3767ZM819.837 74.6327C818.051 76.5273 815.888 78.0223 813.488 79.0201C811.088 80.0178 808.506 80.496 805.911 80.4234C800.535 80.4828 795.356 78.4007 791.504 74.6327C789.619 72.8381 788.131 70.6643 787.138 68.253C786.145 65.8417 785.669 63.2471 785.741 60.6385C785.674 54.9483 787.73 49.4391 791.504 45.1965C793.317 43.3377 795.485 41.8665 797.878 40.8714C800.272 39.8762 802.84 39.3777 805.43 39.4058C808.026 39.3332 810.608 39.8114 813.008 40.8092C815.408 41.807 817.571 43.3019 819.357 45.1965C823.045 49.2999 825.097 54.6265 825.119 60.1559C825.349 62.8105 824.994 65.4833 824.081 67.985C823.168 70.4867 821.719 72.7562 819.837 74.6327Z" fill="white"/>
<path d="M395.828 90.3072V24.679C395.828 24.551 395.879 24.4283 395.969 24.3378C396.059 24.2473 396.181 24.1964 396.308 24.1964H409.754C409.882 24.1964 410.004 24.2473 410.094 24.3378C410.184 24.4283 410.234 24.551 410.234 24.679V30.9523C411.557 28.3354 413.649 26.1909 416.227 24.8097C418.804 23.4285 421.741 22.8774 424.641 23.2313H426.082V38.1907C425.823 38.453 425.485 38.6226 425.121 38.6733C415.997 38.6733 411.675 44.464 411.675 54.5977V91.2723C411.675 91.4003 411.625 91.523 411.534 91.6135C411.444 91.704 411.322 91.7549 411.195 91.7549H396.308C396.126 91.5648 395.988 91.3362 395.905 91.0857C395.822 90.8352 395.796 90.5692 395.828 90.3072Z" fill="white"/>
<path d="M381.378 24.5994H367.932C367.804 24.5994 367.682 24.6502 367.592 24.7407C367.502 24.8312 367.452 24.9539 367.452 25.0819V33.768C365.136 30.3142 362 27.4948 358.327 25.5645C354.409 23.7957 350.134 22.9696 345.842 23.1517C341.359 23.0724 336.908 23.9326 332.774 25.6774C328.64 27.4221 324.913 30.0132 321.831 33.2854C315.487 40.2595 312.049 49.4143 312.226 58.8611C312.056 63.4789 312.82 68.0835 314.47 72.3965C316.121 76.7094 318.625 80.6413 321.831 83.9543C324.939 87.1604 328.682 89.6758 332.818 91.3382C336.954 93.0006 341.39 93.773 345.842 93.6055C350.113 93.5504 354.341 92.7334 358.327 91.1927C362.198 89.1586 365.626 86.3698 368.412 82.9891V91.1927C368.412 91.3206 368.463 91.4434 368.553 91.5339C368.643 91.6244 368.765 91.6752 368.892 91.6752H382.338C382.466 91.6752 382.588 91.6244 382.678 91.5339C382.768 91.4434 382.819 91.3206 382.819 91.1927V25.5645C382.819 25.0819 382.819 24.5994 381.378 24.5994ZM362.649 72.8554C360.864 74.75 358.7 76.2449 356.301 77.2427C353.901 78.2405 351.319 78.7187 348.723 78.6461C343.348 78.7054 338.168 76.6234 334.317 72.8554C332.431 71.0608 330.943 68.8869 329.95 66.4756C328.958 64.0643 328.482 61.4697 328.554 58.8611C328.486 53.1709 330.542 47.6617 334.317 43.4192C336.129 41.5604 338.298 40.0891 340.691 39.094C343.084 38.0989 345.653 37.6004 348.243 37.6285C350.839 37.5559 353.421 38.0341 355.82 39.0319C358.22 40.0296 360.383 41.5246 362.169 43.4192C365.858 47.5225 367.909 52.8492 367.932 58.3786C368.161 61.0332 367.807 63.706 366.894 66.2077C365.981 68.7094 364.532 70.9788 362.649 72.8554Z" fill="white"/>
<path d="M270 22.2434C265.445 22.1617 260.922 23.0187 256.71 24.7617C252.497 26.5046 248.685 29.0964 245.508 32.3772C239.272 38.53 235.511 46.7763 234.944 55.54C234.462 61.1469 235.398 66.7853 237.664 71.9315C239.931 77.0777 243.455 81.5648 247.909 84.9762C254.11 90.1335 261.952 92.8743 270 92.6972C274.656 92.6927 279.265 91.751 283.554 89.9276C287.843 88.1043 291.725 85.4362 294.971 82.0809C298.301 78.9136 300.956 75.0983 302.772 70.8673C304.588 66.6363 305.529 62.0781 305.536 57.4703V56.5052C305.339 47.2283 301.486 38.4091 294.823 31.985C288.16 25.5609 279.232 22.0571 270 22.2434ZM283.446 71.9471L282.485 72.9122C280.752 74.6215 278.689 75.9576 276.424 76.8389C274.16 77.7202 271.74 78.1282 269.313 78.0378C266.886 77.9475 264.502 77.3608 262.308 76.3136C260.115 75.2663 258.156 73.7806 256.553 71.9471C252.854 68.0439 250.791 62.8604 250.791 57.4703C250.791 52.0802 252.854 46.8967 256.553 42.9935C258.146 40.9588 260.193 39.3303 262.53 38.2403C264.866 37.1503 267.425 36.6295 270 36.7202C272.557 36.738 275.081 37.3073 277.401 38.3895C279.72 39.4718 281.782 41.0418 283.446 42.9935C287.145 46.8967 289.208 52.0802 289.208 57.4703C289.208 62.8604 287.145 68.0439 283.446 71.9471Z" fill="white"/>
<path d="M82.7207 92.6358V27.0076C82.7207 26.8796 82.7713 26.7569 82.8614 26.6664C82.9514 26.5759 83.0736 26.525 83.2009 26.525H96.647C96.7744 26.525 96.8966 26.5759 96.9866 26.6664C97.0767 26.7569 97.1273 26.8796 97.1273 27.0076V32.7983C99.6823 30.2871 102.596 28.1728 105.771 26.525C108.932 25.1058 112.426 24.6043 115.856 25.0773C119.495 24.8867 123.133 25.4766 126.527 26.8078C129.922 28.139 132.996 30.1811 135.545 32.7983C139.867 38.1065 141.788 46.31 141.788 57.8914V93.1183C141.788 93.1817 141.775 93.2444 141.751 93.303C141.727 93.3615 141.692 93.4147 141.647 93.4595C141.602 93.5043 141.549 93.5399 141.491 93.5641C141.433 93.5884 141.37 93.6009 141.307 93.6009H126.421C126.358 93.6009 126.295 93.5884 126.237 93.5641C126.179 93.5399 126.126 93.5043 126.081 93.4595C126.036 93.4147 126.001 93.3615 125.977 93.303C125.953 93.2444 125.94 93.1817 125.94 93.1183V60.7868C126.435 55.1582 125.441 49.4982 123.059 44.3797C121.965 42.7388 120.451 41.4246 118.676 40.5754C116.902 39.7262 114.932 39.3734 112.974 39.5541C110.822 39.2982 108.642 39.6611 106.687 40.6007C104.732 41.5403 103.082 43.0181 101.929 44.8623C99.1676 50.2069 98.0003 56.2393 98.5679 62.2345V93.1183C98.5679 93.1817 98.5555 93.2444 98.5314 93.303C98.5072 93.3615 98.4719 93.4147 98.4273 93.4595C98.3827 93.5043 98.3297 93.5399 98.2715 93.5641C98.2132 93.5884 98.1508 93.6009 98.0877 93.6009H83.2009C82.9399 93.3408 82.7711 93.0017 82.7207 92.6358Z" fill="white"/>
<path d="M35.1792 23.134C30.6246 23.0523 26.1016 23.9094 21.8893 25.6523C17.6771 27.3952 13.8649 29.987 10.6881 33.2678C4.45181 39.4206 0.690575 47.6669 0.123269 56.4307C-0.358615 62.0376 0.577285 67.6759 2.84405 72.8221C5.11082 77.9683 8.63495 82.4554 13.0892 85.8668C19.2901 91.0241 27.1318 93.7649 35.1792 93.5878C39.8361 93.5833 44.4449 92.6416 48.7337 90.8182C53.0225 88.9949 56.9045 86.3268 60.1506 82.9715C63.4811 79.8042 66.1353 75.9889 67.9516 71.7579C69.7678 67.5269 70.7082 62.9688 70.7154 58.3609V57.3958C70.5187 48.1189 66.6657 39.2998 60.0026 32.8756C53.3395 26.4515 44.4113 22.9478 35.1792 23.134ZM48.6253 72.8377L47.6649 73.8028C45.9313 75.5121 43.8691 76.8483 41.6042 77.7296C39.3393 78.6109 36.9194 79.0188 34.4923 78.9285C32.0652 78.8381 29.682 78.2514 27.4882 77.2042C25.2944 76.157 23.3361 74.6712 21.7331 72.8377C18.0338 68.9346 15.9705 63.751 15.9705 58.3609C15.9705 52.9708 18.0338 47.7873 21.7331 43.8841C23.3254 41.8494 25.3729 40.2209 27.7093 39.1309C30.0456 38.0409 32.6049 37.5201 35.1792 37.6108C37.7367 37.6286 40.2605 38.1979 42.5802 39.2801C44.8999 40.3624 46.9614 41.9324 48.6253 43.8841C52.3246 47.7873 54.388 52.9708 54.388 58.3609C54.388 63.751 52.3246 68.9346 48.6253 72.8377Z" fill="white"/>
<path d="M466.572 23.134C462.017 23.0523 457.494 23.9094 453.282 25.6523C449.07 27.3952 445.257 29.987 442.081 33.2678C435.844 39.4206 432.083 47.6669 431.516 56.4307C431.034 62.0376 431.97 67.6759 434.237 72.8221C436.503 77.9683 440.028 82.4554 444.482 85.8668C450.683 91.0241 458.524 93.7649 466.572 93.5878C471.229 93.5833 475.837 92.6416 480.126 90.8182C484.415 88.9949 488.297 86.3268 491.543 82.9715C494.874 79.8042 497.528 75.9889 499.344 71.7579C501.16 67.5269 502.101 62.9688 502.108 58.3609V57.3958C501.911 48.1189 498.058 39.2998 491.395 32.8756C484.732 26.4515 475.804 22.9478 466.572 23.134ZM480.018 72.8377L479.057 73.8028C477.324 75.5121 475.262 76.8483 472.997 77.7296C470.732 78.6109 468.312 79.0188 465.885 78.9285C463.458 78.8381 461.075 78.2514 458.881 77.2042C456.687 76.157 454.729 74.6712 453.126 72.8377C449.426 68.9346 447.363 63.751 447.363 58.3609C447.363 52.9708 449.426 47.7873 453.126 43.8841C454.718 41.8494 456.765 40.2209 459.102 39.1309C461.438 38.0409 463.997 37.5201 466.572 37.6108C469.129 37.6286 471.653 38.1979 473.973 39.2801C476.293 40.3624 478.354 41.9324 480.018 43.8841C483.717 47.7873 485.781 52.9708 485.781 58.3609C485.781 63.751 483.717 68.9346 480.018 72.8377Z" fill="white"/>
<rect x="488.318" y="4.44727" width="16.0104" height="88.9469" rx="0.5" fill="white"/>
<path d="M192.524 23.134C197.079 23.0523 201.602 23.9094 205.814 25.6523C210.026 27.3952 213.838 29.987 217.015 33.2678C223.251 39.4206 227.013 47.6669 227.58 56.4307C228.062 62.0376 227.126 67.6759 224.859 72.8221C222.592 77.9683 219.068 82.4554 214.614 85.8668C208.413 91.0241 200.571 93.7649 192.524 93.5878C187.867 93.5833 183.258 92.6416 178.969 90.8182C174.681 88.9949 170.799 86.3268 167.553 82.9715C164.222 79.8042 161.568 75.9889 159.752 71.7579C157.935 67.5269 156.995 62.9688 156.988 58.3609V57.3958C157.184 48.1189 161.037 39.2998 167.701 32.8756C174.364 26.4515 183.292 22.9478 192.524 23.134ZM179.078 72.8377L180.038 73.8028C181.772 75.5121 183.834 76.8483 186.099 77.7296C188.364 78.6109 190.784 79.0188 193.211 78.9285C195.638 78.8381 198.021 78.2514 200.215 77.2042C202.409 76.157 204.367 74.6712 205.97 72.8377C209.669 68.9346 211.733 63.751 211.733 58.3609C211.733 52.9708 209.669 47.7873 205.97 43.8841C204.378 41.8494 202.33 40.2209 199.994 39.1309C197.658 38.0409 195.098 37.5201 192.524 37.6108C189.966 37.6286 187.443 38.1979 185.123 39.2801C182.803 40.3624 180.742 41.9324 179.078 43.8841C175.379 47.7873 173.315 52.9708 173.315 58.3609C173.315 63.751 175.379 68.9346 179.078 72.8377Z" fill="white"/>
<rect width="16.0104" height="88.9469" rx="0.5" transform="matrix(-1 0 0 1 170.777 4.44727)" fill="white"/>
</svg>
