<svg width="393" height="54" viewBox="0 0 393 54" fill="none" xmlns="http://www.w3.org/2000/svg">
<path opacity="0.25" d="M1171 10.1445V32.2703C1113.65 42.8815 1046.69 47.647 981.4 45.6538C896.968 43.087 817.804 29.7322 733.24 27.7295C644.632 25.6455 556.192 35.7978 471.4 44.5831C388.276 53.1868 305.44 56.4753 220.12 50.8351C176.74 47.9672 136.3 42.3079 94.78 36.8111C-16.3881 22.0941 -164.6 3.31418 -269 35.2242V10.1445L1171 10.1445Z" fill="#FF9452"/>
<path opacity="0.5" d="M1171 1.06055V8.61743C1155.4 18.7076 1137.83 28.2386 1113.77 35.4991C1051.71 54.2455 973 54.1165 901.504 44.8341C864.124 39.9826 829.396 32.3731 793.9 25.8104C744.796 16.7288 692.224 3.82328 636.904 2.06909C593.392 0.706841 551.824 6.57167 518.584 17.1542C480.46 29.2901 443.8 46.789 394.228 52.0468C345.7 57.2042 296.608 48.8491 251.272 40.4414C205.936 32.0337 161.08 21.8002 110.968 19.8643C39.292 17.0681 -24.968 30.8006 -91.712 38.4291C-127.952 42.5685 -162.512 41.3783 -196.22 34.8443C-223.136 29.6391 -253.82 21.9722 -269 11.3085V1.06055L1171 1.06055Z" fill="#FF9452"/>
<path opacity="0.5" d="M1171 1.06055V8.61743C1155.4 18.7076 1137.83 28.2386 1113.77 35.4991C1051.71 54.2455 973 54.1165 901.504 44.8341C864.124 39.9826 829.396 32.3731 793.9 25.8104C744.796 16.7288 692.224 3.82328 636.904 2.06909C593.392 0.706841 551.824 6.57167 518.584 17.1542C480.46 29.2901 443.8 46.789 394.228 52.0468C345.7 57.2042 296.608 48.8491 251.272 40.4414C205.936 32.0337 161.08 21.8002 110.968 19.8643C39.292 17.0681 -24.968 30.8006 -91.712 38.4291C-127.952 42.5685 -162.512 41.3783 -196.22 34.8443C-223.136 29.6391 -253.82 21.9722 -269 11.3085V1.06055L1171 1.06055Z" fill="#FF9452"/>
<path d="M1171 -3.53275e-05V2.691C991.084 28.2009 794.092 34.0896 600.004 20.3476C548.404 16.6959 498.928 10.7306 446.872 7.70025C376.072 3.57527 311.896 13.5507 248.2 24.6208C177.484 36.9097 107.8 45.5229 29.5599 43.0183C-74.2761 39.6724 -177.392 21.1698 -269 2.48069V-3.53275e-05L1171 -3.53275e-05Z" fill="#FF9452"/>
</svg>
