<svg width="393" height="54" viewBox="0 0 393 54" fill="none" xmlns="http://www.w3.org/2000/svg">
<path opacity="0.25" d="M1171 2V24.1258C1113.65 34.737 1046.69 39.5024 981.4 37.5092C896.968 34.9425 817.804 21.5877 733.24 19.5849C644.632 17.5009 556.192 27.6533 471.4 36.4386C388.276 45.0422 305.44 48.3307 220.12 42.6906C176.74 39.8227 136.3 34.1634 94.78 28.6666C-16.388 13.9495 -164.6 -4.83036 -269 27.0797V2L1171 2Z" fill="#6C63F9" fill-opacity="0.45"/>
<path opacity="0.5" d="M1171 1V8.55689C1155.4 18.6471 1137.83 28.178 1113.77 35.4386C1051.71 54.185 973 54.0559 901.504 44.7735C864.124 39.922 829.396 32.3126 793.9 25.7499C744.796 16.6682 692.224 3.76273 636.904 2.00854C593.392 0.646294 551.824 6.51113 518.584 17.0936C480.46 29.2296 443.8 46.7285 394.228 51.9863C345.7 57.1437 296.608 48.7886 251.272 40.3809C205.936 31.9732 161.08 21.7396 110.968 19.8038C39.292 17.0076 -24.9681 30.74 -91.7121 38.3686C-127.952 42.5079 -162.512 41.3177 -196.22 34.7837C-223.136 29.5785 -253.82 21.9117 -269 11.2479V1L1171 1Z" fill="#6C63F9" fill-opacity="0.87"/>
<path d="M1171 -3.53275e-05V2.691C991.084 28.2009 794.092 34.0896 600.004 20.3476C548.404 16.6959 498.928 10.7306 446.872 7.70025C376.072 3.57527 311.896 13.5507 248.2 24.6208C177.484 36.9097 107.8 45.5229 29.5599 43.0183C-74.2761 39.6724 -177.392 21.1698 -269 2.48069V-3.53275e-05L1171 -3.53275e-05Z" fill="#6C63F9"/>
</svg>
