<svg width="1440" height="140" viewBox="0 0 1440 140" fill="none" xmlns="http://www.w3.org/2000/svg">
<path opacity="0.25" d="M1440 21.8457V81.9557C1382.65 110.784 1315.69 123.73 1250.4 118.315C1165.97 111.342 1086.8 75.0604 1002.24 69.6195C913.632 63.9578 825.192 91.539 740.4 115.406C657.276 138.78 574.44 147.714 489.12 132.392C445.74 124.6 405.3 109.225 363.78 94.292C252.612 54.3095 104.4 3.28938 0 89.9808V21.8457L1440 21.8457Z" fill="#6C63F9" fill-opacity="0.45"/>
<path opacity="0.5" d="M1440 -2.83203V17.6981C1424.4 45.1105 1406.83 71.0037 1382.77 90.7287C1320.71 141.658 1242 141.307 1170.5 116.089C1133.12 102.909 1098.4 82.2362 1062.9 64.407C1013.8 39.7345 961.224 4.67361 905.904 -0.0920844C862.392 -3.79296 820.824 12.1403 787.584 40.8903C749.46 73.8605 712.8 121.401 663.228 135.685C614.7 149.696 565.608 126.997 520.272 104.156C474.936 81.3142 430.08 53.5122 379.968 48.253C308.292 40.6565 244.032 77.9639 177.288 98.6889C141.048 109.934 106.488 106.701 72.78 88.9497C45.864 74.8085 15.1799 53.9797 0 25.0089V-2.83203L1440 -2.83203Z" fill="#6C63F9" fill-opacity="0.87"/>
<path opacity="0.5" d="M1441 -3V17.5301C1425.4 44.9426 1407.83 70.8357 1383.77 90.5608C1321.71 141.49 1243 141.139 1171.5 115.921C1134.12 102.741 1099.4 82.0682 1063.9 64.2391C1014.8 39.5666 962.224 4.50564 906.904 -0.260053C863.392 -3.96093 821.824 11.9723 788.584 40.7223C750.46 73.6925 713.8 121.233 664.228 135.517C615.7 149.528 566.608 126.829 521.272 103.988C475.936 81.1462 431.08 53.3442 380.968 48.0851C309.292 40.4885 245.032 77.796 178.288 98.5209C142.048 109.766 107.488 106.533 73.78 88.7817C46.864 74.6405 16.1799 53.8117 1 24.841V-3L1441 -3Z" fill="#6C63F9" fill-opacity="0.87"/>
<path d="M1440 -5.71484V1.59601C1260.08 70.8998 1063.09 86.898 869.004 49.5646C817.404 39.6436 767.928 23.4377 715.872 15.2048C645.072 3.99833 580.896 31.0991 517.2 61.1736C446.484 94.5594 376.8 117.959 298.56 111.155C194.724 102.065 91.608 51.7981 0 1.02465V-5.71484L1440 -5.71484Z" fill="#6C63F9"/>
</svg>
