<svg width="364" height="86" viewBox="0 0 364 86" fill="none" xmlns="http://www.w3.org/2000/svg">
<g clip-path="url(#clip0_161_7)">
<mask id="mask0_161_7" style="mask-type:luminance" maskUnits="userSpaceOnUse" x="0" y="0" width="364" height="86">
<path d="M364 0H0V86H364V0Z" fill="white"/>
</mask>
<g mask="url(#mask0_161_7)">
<path d="M155.62 0C156.482 0 157.324 0.256538 158.04 0.737172C158.757 1.21781 159.315 1.90095 159.645 2.70022C159.975 3.49948 160.061 4.37897 159.893 5.22747C159.725 6.07596 159.31 6.85535 158.7 7.46709C158.091 8.07882 157.315 8.49541 156.47 8.66419C155.625 8.83296 154.749 8.74634 153.953 8.41527C153.157 8.08421 152.477 7.52357 151.998 6.80425C151.519 6.08493 151.264 5.23924 151.264 4.37412C151.264 3.21403 151.723 2.10146 152.54 1.28115C153.357 0.460843 154.465 0 155.62 0Z" fill="#040405"/>
<path d="M0 13.8271C0 13.7626 0.0254986 13.7008 0.0708864 13.6553C0.116274 13.6097 0.177833 13.5841 0.242021 13.5841H7.01862C7.08281 13.5841 7.14436 13.6097 7.18975 13.6553C7.23514 13.7008 7.26064 13.7626 7.26064 13.8271V16.7432C8.37367 15.4701 9.75427 14.461 11.3028 13.7886C12.8514 13.1162 14.5293 12.7974 16.2154 12.8551C18.2225 12.7636 20.2202 13.1815 22.0239 14.0701C23.5366 15.0232 24.8515 16.2609 25.8963 17.7152C25.8963 17.9582 26.1383 17.9582 26.3803 17.7152C27.6082 16.136 29.1918 14.8719 31.001 14.027C32.8102 13.1821 34.7933 12.7804 36.7872 12.8551C45.984 12.8551 50.5824 17.9582 50.5824 27.9215V46.876C50.5824 46.9079 50.5762 46.9395 50.564 46.969C50.5519 46.9984 50.534 47.0252 50.5116 47.0478C50.4891 47.0704 50.4624 47.0883 50.433 47.1005C50.4037 47.1127 50.3722 47.119 50.3404 47.119H42.8378C42.7736 47.119 42.712 47.0934 42.6666 47.0478C42.6212 47.0022 42.5957 46.9404 42.5957 46.876V28.6505C42.8424 26.3627 42.3321 24.0569 41.1436 22.0893C40.5745 21.371 39.8288 20.8139 38.9801 20.473C38.1313 20.1321 37.2087 20.0192 36.3032 20.1453C35.282 20.052 34.2542 20.2269 33.3207 20.653C32.3873 21.079 31.5802 21.7415 30.9787 22.5753C29.8177 25.0855 29.2384 27.8273 29.2846 30.5945V46.876C29.2846 46.9404 29.2591 47.0022 29.2137 47.0478C29.1683 47.0934 29.1067 47.119 29.0426 47.119H21.5399C21.4757 47.119 21.4141 47.0934 21.3688 47.0478C21.3234 47.0022 21.2979 46.9404 21.2979 46.876V28.6505C21.458 26.3367 20.8633 24.0335 19.6037 22.0893C19.0346 21.371 18.2889 20.8139 17.4402 20.473C16.5914 20.1321 15.6688 20.0192 14.7633 20.1453C13.7768 20.0542 12.7841 20.2319 11.8897 20.6595C10.9953 21.0872 10.2323 21.749 9.68085 22.5753C7.9867 24.0334 7.74468 26.9494 7.74468 30.5945V46.876C7.74468 46.9079 7.73842 46.9395 7.72626 46.969C7.7141 46.9984 7.69627 47.0252 7.67379 47.0478C7.65132 47.0704 7.62464 47.0883 7.59528 47.1005C7.56591 47.1127 7.53444 47.119 7.50266 47.119H0.205718C0.178703 47.119 0.151952 47.1136 0.126993 47.1033C0.102034 47.0929 0.0793561 47.0777 0.0602534 47.0585C0.0411507 47.0393 0.0259977 47.0165 0.0156594 46.9915C0.00532106 46.9664 0 46.9395 0 46.9124L0 13.8271Z" fill="#040405"/>
<path d="M73.3332 12.8551C71.0377 12.8139 68.7582 13.2455 66.6353 14.1232C64.5124 15.0009 62.5912 16.3061 60.9901 17.9582C57.8471 21.0566 55.9516 25.2093 55.6656 29.6225C55.4228 32.446 55.8945 35.2854 57.0369 37.8769C58.1793 40.4684 59.9554 42.728 62.2002 44.4459C65.3254 47.043 69.2775 48.4232 73.3332 48.334C75.6802 48.3317 78.0029 47.8575 80.1644 46.9393C82.3259 46.0211 84.2823 44.6775 85.9183 42.9879C87.5968 41.3929 88.9345 39.4716 89.8498 37.341C90.7652 35.2103 91.2391 32.9149 91.2428 30.5945V30.1085C91.1437 25.4369 89.2018 20.9958 85.8437 17.7607C82.4857 14.5257 77.986 12.7613 73.3332 12.8551ZM80.1098 37.8847L79.6257 38.3707C78.752 39.2315 77.7127 39.9044 76.5713 40.3482C75.4298 40.7919 74.2102 40.9974 72.987 40.9519C71.7638 40.9064 70.5627 40.6109 69.457 40.0836C68.3514 39.5562 67.3645 38.808 66.5566 37.8847C64.6922 35.9192 63.6523 33.3089 63.6523 30.5945C63.6523 27.8802 64.6922 25.2699 66.5566 23.3043C67.3591 22.2797 68.391 21.4596 69.5685 20.9107C70.746 20.3618 72.0358 20.0996 73.3332 20.1453C74.6221 20.1542 75.8941 20.4409 77.0632 20.9859C78.2322 21.5309 79.2712 22.3215 80.1098 23.3043C81.9741 25.2699 83.014 27.8802 83.014 30.5945C83.014 33.3089 81.9741 35.9192 80.1098 37.8847Z" fill="#040405"/>
<path d="M95.8408 46.876V13.8271C95.8408 13.7626 95.8663 13.7008 95.9117 13.6553C95.957 13.6097 96.0186 13.5841 96.0828 13.5841H102.859C102.924 13.5841 102.985 13.6097 103.031 13.6553C103.076 13.7008 103.101 13.7626 103.101 13.8271V16.9862C103.768 15.6684 104.822 14.5884 106.121 13.8929C107.42 13.1973 108.901 12.9198 110.362 13.0981H111.088V20.6313C110.958 20.7634 110.788 20.8488 110.604 20.8743C106.006 20.8743 103.827 23.7904 103.827 28.8935V47.362C103.827 47.4264 103.802 47.4882 103.757 47.5338C103.711 47.5794 103.65 47.605 103.585 47.605H96.0828C95.9909 47.5093 95.9214 47.3941 95.8796 47.268C95.8377 47.1419 95.8244 47.0079 95.8408 46.876Z" fill="#040405"/>
<path d="M115.201 46.876V13.8271C115.201 13.7626 115.227 13.7008 115.272 13.6552C115.317 13.6097 115.379 13.5841 115.443 13.5841H122.22C122.284 13.5841 122.346 13.6097 122.391 13.6552C122.436 13.7008 122.462 13.7626 122.462 13.8271V16.7432C123.749 15.4786 125.218 14.4138 126.818 13.5841C128.411 12.8694 130.172 12.6168 131.901 12.8551C133.735 12.759 135.568 13.0561 137.279 13.7265C138.99 14.3969 140.539 15.4252 141.824 16.7432C144.002 19.4162 144.97 23.5473 144.97 29.3795V47.119C144.97 47.1509 144.964 47.1825 144.951 47.212C144.939 47.2414 144.921 47.2682 144.899 47.2908C144.876 47.3134 144.85 47.3313 144.82 47.3435C144.791 47.3557 144.76 47.362 144.728 47.362H137.225C137.193 47.362 137.162 47.3557 137.132 47.3435C137.103 47.3313 137.076 47.3134 137.054 47.2908C137.031 47.2682 137.014 47.2414 137.002 47.212C136.989 47.1825 136.983 47.1509 136.983 47.119V30.8375C137.232 28.0031 136.731 25.1529 135.531 22.5753C134.98 21.749 134.216 21.0872 133.322 20.6595C132.428 20.2319 131.435 20.0542 130.449 20.1452C129.364 20.0164 128.265 20.1991 127.28 20.6723C126.294 21.1455 125.463 21.8896 124.882 22.8183C123.49 25.5098 122.902 28.5475 123.188 31.5666V47.119C123.188 47.1509 123.182 47.1825 123.169 47.212C123.157 47.2414 123.139 47.2682 123.117 47.2908C123.095 47.3134 123.068 47.3313 123.038 47.3435C123.009 47.3557 122.978 47.362 122.946 47.362H115.443C115.312 47.231 115.227 47.0602 115.201 46.876Z" fill="#040405"/>
<path d="M151.506 13.8271C151.506 13.7626 151.531 13.7008 151.577 13.6553C151.622 13.6097 151.684 13.5841 151.748 13.5841H159.251C159.315 13.5841 159.376 13.6097 159.422 13.6553C159.467 13.7008 159.493 13.7626 159.493 13.8271V46.876C159.493 46.9404 159.467 47.0022 159.422 47.0478C159.376 47.0934 159.315 47.119 159.251 47.119H151.719C151.69 47.1193 151.662 47.1139 151.636 47.1029C151.61 47.092 151.586 47.0758 151.566 47.0554C151.546 47.0349 151.53 47.0106 151.52 46.984C151.51 46.9573 151.505 46.9288 151.506 46.9003V13.8271Z" fill="#040405"/>
<path d="M166.027 46.876V13.8271C166.027 13.7626 166.053 13.7008 166.098 13.6552C166.144 13.6097 166.205 13.5841 166.269 13.5841H173.046C173.11 13.5841 173.172 13.6097 173.217 13.6552C173.262 13.7008 173.288 13.7626 173.288 13.8271V16.7432C174.576 15.4786 176.044 14.4138 177.644 13.5841C179.238 12.8694 180.998 12.6168 182.727 12.8551C184.561 12.759 186.394 13.0561 188.105 13.7265C189.816 14.3969 191.365 15.4252 192.65 16.7432C194.828 19.4162 195.796 23.5473 195.796 29.3795V47.119C195.796 47.1509 195.79 47.1825 195.778 47.212C195.765 47.2414 195.748 47.2682 195.725 47.2908C195.703 47.3134 195.676 47.3313 195.647 47.3435C195.617 47.3557 195.586 47.362 195.554 47.362H188.051C188.019 47.362 187.988 47.3557 187.959 47.3435C187.929 47.3313 187.903 47.3134 187.88 47.2908C187.858 47.2682 187.84 47.2414 187.828 47.212C187.816 47.1825 187.809 47.1509 187.809 47.119V30.8375C188.059 28.0031 187.558 25.1529 186.357 22.5753C185.806 21.749 185.043 21.0872 184.148 20.6595C183.254 20.2319 182.261 20.0542 181.275 20.1452C180.19 20.0164 179.091 20.1991 178.106 20.6723C177.121 21.1455 176.289 21.8896 175.708 22.8183C174.316 25.5098 173.728 28.5475 174.014 31.5666V47.119C174.014 47.1509 174.008 47.1825 173.996 47.212C173.983 47.2414 173.966 47.2682 173.943 47.2908C173.921 47.3134 173.894 47.3313 173.865 47.3435C173.835 47.3557 173.804 47.362 173.772 47.362H166.269C166.138 47.231 166.053 47.0602 166.027 46.876Z" fill="#040405"/>
<path d="M243.474 21.1173C243.474 21.0528 243.448 20.991 243.403 20.9454C243.358 20.8999 243.296 20.8743 243.232 20.8743H239.844C239.779 20.8743 239.718 20.8486 239.672 20.8031C239.627 20.7575 239.602 20.6957 239.602 20.6312V13.8271C239.602 13.7626 239.627 13.7008 239.672 13.6552C239.718 13.6097 239.779 13.5841 239.844 13.5841H243.232C243.296 13.5841 243.358 13.5585 243.403 13.5129C243.448 13.4673 243.474 13.4055 243.474 13.3411V2.40576C243.474 2.34131 243.499 2.2795 243.545 2.23393C243.59 2.18835 243.652 2.16275 243.716 2.16275H251.219C251.283 2.16275 251.344 2.18835 251.39 2.23393C251.435 2.2795 251.461 2.34131 251.461 2.40576V13.098C251.461 13.1625 251.486 13.2243 251.531 13.2699C251.577 13.3154 251.638 13.3411 251.703 13.3411H256.059C256.123 13.3411 256.185 13.3667 256.23 13.4122C256.276 13.4578 256.301 13.5196 256.301 13.5841V20.3882C256.301 20.4527 256.276 20.5145 256.23 20.5601C256.185 20.6056 256.123 20.6312 256.059 20.6312H251.703C251.638 20.6312 251.577 20.6568 251.531 20.7024C251.486 20.748 251.461 20.8098 251.461 20.8743V46.876C251.461 46.9404 251.435 47.0022 251.39 47.0478C251.344 47.0934 251.283 47.119 251.219 47.119H243.694C243.665 47.119 243.637 47.1132 243.61 47.1021C243.583 47.091 243.559 47.0747 243.538 47.0542C243.518 47.0337 243.502 47.0093 243.491 46.9824C243.48 46.9556 243.474 46.9269 243.474 46.8978V21.1173Z" fill="#040405"/>
<path d="M260.635 47.1676C260.576 47.1676 260.519 47.144 260.477 47.1021C260.436 47.0602 260.412 47.0033 260.412 46.944V13.8271C260.412 13.7626 260.438 13.7008 260.483 13.6552C260.528 13.6097 260.59 13.5841 260.654 13.5841H267.431C267.495 13.5841 267.556 13.6097 267.602 13.6552C267.647 13.7008 267.673 13.7626 267.673 13.8271V16.9862C268.34 15.6691 269.395 14.5897 270.693 13.8943C271.992 13.1989 273.472 12.9209 274.933 13.0981H275.417V20.6313C275.417 20.6957 275.392 20.7575 275.347 20.8031C275.301 20.8487 275.24 20.8743 275.175 20.8743C274.222 20.8061 273.266 20.9591 272.381 21.3215C271.495 21.6839 270.705 22.2459 270.071 22.9641C268.845 24.6856 268.255 26.7822 268.401 28.8935V46.9416C268.401 47.0017 268.376 47.0592 268.334 47.1015C268.291 47.1438 268.234 47.1676 268.174 47.1676H260.635Z" fill="#040405"/>
<path d="M312.933 13.5841H306.157C306.092 13.5841 306.031 13.6097 305.985 13.6552C305.94 13.7008 305.915 13.7626 305.915 13.8271V18.2012C304.747 16.4619 303.167 15.0421 301.316 14.0701C299.341 13.1794 297.187 12.7633 295.024 12.855C292.764 12.8151 290.521 13.2483 288.438 14.1269C286.354 15.0055 284.476 16.3104 282.922 17.9582C279.725 21.4701 277.993 26.0803 278.082 30.8375C277.996 33.1629 278.381 35.4817 279.213 37.6536C280.045 39.8255 281.307 41.8055 282.922 43.4739C284.489 45.0884 286.375 46.3551 288.46 47.1922C290.544 48.0294 292.78 48.4183 295.024 48.334C297.176 48.3062 299.307 47.8948 301.316 47.119C303.267 46.0946 304.995 44.6903 306.399 42.9878V47.119C306.399 47.1834 306.424 47.2452 306.469 47.2908C306.515 47.3364 306.576 47.362 306.641 47.362H313.417C313.481 47.362 313.543 47.3364 313.588 47.2908C313.634 47.2452 313.659 47.1834 313.659 47.119V14.0701C313.659 13.8271 313.659 13.5841 312.933 13.5841ZM303.494 37.8847C302.594 38.8388 301.504 39.5916 300.295 40.0941C299.085 40.5965 297.784 40.8374 296.476 40.8008C293.767 40.8307 291.156 39.7822 289.215 37.8847C288.265 36.981 287.515 35.8863 287.015 34.672C286.514 33.4577 286.274 32.1511 286.311 30.8375C286.277 27.9721 287.313 25.1977 289.215 23.0613C290.129 22.1252 291.221 21.3844 292.428 20.8832C293.634 20.3821 294.928 20.1311 296.234 20.1452C297.542 20.1087 298.843 20.3495 300.053 20.8519C301.262 21.3544 302.352 22.1072 303.252 23.0613C305.111 25.1277 306.145 27.81 306.157 30.5945C306.272 31.9313 306.093 33.2773 305.633 34.5371C305.173 35.7969 304.443 36.9397 303.494 37.8847Z" fill="#040405"/>
<path d="M319.711 13.8271C319.711 13.7626 319.736 13.7008 319.782 13.6553C319.827 13.6097 319.889 13.5841 319.953 13.5841H327.456C327.52 13.5841 327.581 13.6097 327.627 13.6553C327.672 13.7008 327.698 13.7626 327.698 13.8271V46.876C327.698 46.9404 327.672 47.0022 327.627 47.0478C327.581 47.0934 327.52 47.119 327.456 47.119H319.921C319.866 47.119 319.812 47.0967 319.773 47.0571C319.733 47.0174 319.711 46.9636 319.711 46.9076V13.8271Z" fill="#040405"/>
<path d="M334.23 46.876V13.8271C334.23 13.7626 334.256 13.7008 334.301 13.6552C334.347 13.6097 334.408 13.5841 334.472 13.5841H341.249C341.313 13.5841 341.375 13.6097 341.42 13.6552C341.466 13.7008 341.491 13.7626 341.491 13.8271V16.7432C342.779 15.4786 344.247 14.4138 345.847 13.5841C347.441 12.8694 349.201 12.6168 350.93 12.8551C352.764 12.759 354.597 13.0561 356.308 13.7265C358.019 14.3969 359.568 15.4252 360.853 16.7432C363.031 19.4162 363.999 23.5473 363.999 29.3795V47.119C363.999 47.1509 363.993 47.1825 363.981 47.212C363.969 47.2414 363.951 47.2682 363.928 47.2908C363.906 47.3134 363.879 47.3313 363.85 47.3435C363.82 47.3557 363.789 47.362 363.757 47.362H356.254C356.223 47.362 356.191 47.3557 356.162 47.3435C356.132 47.3313 356.106 47.3134 356.083 47.2908C356.061 47.2682 356.043 47.2414 356.031 47.212C356.019 47.1825 356.012 47.1509 356.012 47.119V30.8375C356.262 28.0031 355.761 25.1529 354.56 22.5753C354.009 21.749 353.246 21.0872 352.351 20.6595C351.457 20.2319 350.464 20.0542 349.478 20.1452C348.393 20.0164 347.294 20.1991 346.309 20.6723C345.324 21.1455 344.492 21.8896 343.911 22.8183C342.52 25.5098 341.931 28.5475 342.217 31.5666V47.119C342.217 47.1509 342.211 47.1825 342.199 47.212C342.187 47.2414 342.169 47.2682 342.146 47.2908C342.124 47.3134 342.097 47.3313 342.068 47.3435C342.038 47.3557 342.007 47.362 341.975 47.362H334.472C334.341 47.231 334.256 47.0602 334.23 46.876Z" fill="#040405"/>
<path d="M218.546 12.8551C216.251 12.8139 213.971 13.2455 211.848 14.1232C209.725 15.0009 207.804 16.3061 206.203 17.9582C203.06 21.0566 201.164 25.2093 200.879 29.6225C200.636 32.446 201.107 35.2854 202.25 37.8769C203.392 40.4684 205.168 42.728 207.413 44.4459C210.538 47.043 214.49 48.4232 218.546 48.334C220.893 48.3317 223.216 47.8575 225.377 46.9393C227.539 46.0211 229.495 44.6775 231.131 42.9879C232.81 41.3929 234.147 39.4716 235.063 37.341C235.978 35.2103 236.452 32.9149 236.456 30.5945V30.1085C236.357 25.4369 234.415 20.9958 231.057 17.7607C227.699 14.5257 223.199 12.7613 218.546 12.8551ZM225.323 37.8847L224.839 38.3707C223.965 39.2315 222.926 39.9044 221.784 40.3482C220.643 40.7919 219.423 40.9974 218.2 40.9519C216.977 40.9064 215.776 40.6109 214.67 40.0836C213.564 39.5562 212.577 38.808 211.769 37.8847C209.905 35.9192 208.865 33.3089 208.865 30.5945C208.865 27.8802 209.905 25.2699 211.769 23.3043C212.572 22.2797 213.604 21.4596 214.781 20.9107C215.959 20.3618 217.249 20.0996 218.546 20.1453C219.835 20.1542 221.107 20.4409 222.276 20.9859C223.445 21.5309 224.484 22.3215 225.323 23.3043C227.187 25.2699 228.227 27.8802 228.227 30.5945C228.227 33.3089 227.187 35.9192 225.323 37.8847Z" fill="#040405"/>
<path d="M218.546 50.521C216.25 50.4799 213.971 50.9115 211.848 51.7892C209.725 52.6669 207.804 53.9721 206.202 55.6242C203.06 58.7226 201.164 62.8753 200.878 67.2885C200.732 69.7019 201.082 72.1196 201.905 74.3917C202.729 76.6637 204.009 78.7416 205.665 80.4962C207.322 82.2508 209.32 83.6448 211.536 84.5916C213.752 85.5384 216.138 86.0178 218.546 86C220.893 85.9977 223.215 85.5235 225.377 84.6053C227.538 83.6871 229.495 82.3435 231.131 80.6538C232.809 79.0589 234.147 77.1376 235.062 75.007C235.978 72.8763 236.452 70.5809 236.455 68.2605V67.7745C236.356 63.1029 234.414 58.6618 231.056 55.4267C227.698 52.1917 223.198 50.4273 218.546 50.521ZM225.322 75.5507L224.838 76.0367C223.964 76.8975 222.925 77.5703 221.784 78.0141C220.642 78.4579 219.423 78.6634 218.199 78.6179C216.976 78.5724 215.775 78.2769 214.669 77.7496C213.564 77.2222 212.577 76.474 211.769 75.5507C209.905 73.5852 208.865 70.9748 208.865 68.2605C208.865 65.5462 209.905 62.9359 211.769 60.9703C212.571 59.9457 213.603 59.1256 214.781 58.5767C215.958 58.0278 217.248 57.7655 218.546 57.8112C219.835 57.8202 221.106 58.1069 222.276 58.6519C223.445 59.1969 224.484 59.9875 225.322 60.9703C227.187 62.9359 228.226 65.5462 228.226 68.2605C228.226 70.9748 227.187 73.5852 225.322 75.5507Z" fill="#040405"/>
<path d="M323.825 0C324.687 0 325.529 0.256538 326.245 0.737172C326.962 1.21781 327.52 1.90095 327.85 2.70022C328.18 3.49948 328.266 4.37897 328.098 5.22747C327.93 6.07596 327.515 6.85535 326.906 7.46709C326.296 8.07882 325.52 8.49541 324.675 8.66419C323.83 8.83296 322.954 8.74634 322.158 8.41527C321.362 8.08421 320.682 7.52357 320.203 6.80425C319.724 6.08493 319.469 5.23924 319.469 4.37412C319.469 3.21403 319.928 2.10146 320.745 1.28115C321.562 0.460843 322.67 0 323.825 0Z" fill="#040405"/>
</g>
</g>
<defs>
<clipPath id="clip0_161_7">
<rect width="364" height="86" fill="white"/>
</clipPath>
</defs>
</svg>
