<svg width="1440" height="140" viewBox="0 0 1440 140" fill="none" xmlns="http://www.w3.org/2000/svg">
<path opacity="0.25" d="M1440 21.8457V81.9557C1382.65 110.784 1315.69 123.73 1250.4 118.315C1165.97 111.342 1086.8 75.0604 1002.24 69.6195C913.632 63.9578 825.192 91.539 740.4 115.406C657.276 138.78 574.44 147.714 489.12 132.392C445.74 124.6 405.3 109.225 363.78 94.292C252.612 54.3095 104.4 3.28938 0 89.9808V21.8457L1440 21.8457Z" fill="#FF9452"/>
<path opacity="0.5" d="M1440 -2.83203V17.6981C1424.4 45.1105 1406.83 71.0037 1382.77 90.7287C1320.71 141.658 1242 141.307 1170.5 116.089C1133.12 102.909 1098.4 82.2362 1062.9 64.407C1013.8 39.7345 961.224 4.67361 905.904 -0.0920844C862.392 -3.79296 820.824 12.1403 787.584 40.8903C749.46 73.8605 712.8 121.401 663.228 135.685C614.7 149.696 565.608 126.997 520.272 104.156C474.936 81.3142 430.08 53.5122 379.968 48.253C308.292 40.6565 244.032 77.9639 177.288 98.6889C141.048 109.934 106.488 106.701 72.78 88.9497C45.864 74.8085 15.1799 53.9797 0 25.0089V-2.83203L1440 -2.83203Z" fill="#FF9452"/>
<path opacity="0.5" d="M1440 -2.83203V17.6981C1424.4 45.1105 1406.83 71.0037 1382.77 90.7287C1320.71 141.658 1242 141.307 1170.5 116.089C1133.12 102.909 1098.4 82.2362 1062.9 64.407C1013.8 39.7345 961.224 4.67361 905.904 -0.0920844C862.392 -3.79296 820.824 12.1403 787.584 40.8903C749.46 73.8605 712.8 121.401 663.228 135.685C614.7 149.696 565.608 126.997 520.272 104.156C474.936 81.3142 430.08 53.5122 379.968 48.253C308.292 40.6565 244.032 77.9639 177.288 98.6889C141.048 109.934 106.488 106.701 72.78 88.9497C45.864 74.8085 15.1799 53.9797 0 25.0089V-2.83203L1440 -2.83203Z" fill="#FF9452"/>
<path d="M1440 -5.71396V1.59689C1260.08 70.9007 1063.09 86.8988 869.004 49.5654C817.404 39.6445 767.928 23.4386 715.872 15.2057C645.072 3.99921 580.896 31.1 517.2 61.1745C446.484 94.5603 376.8 117.96 298.56 111.156C194.724 102.066 91.608 51.799 0 1.02553V-5.71396L1440 -5.71396Z" fill="#FF9452"/>
</svg>
